PathFileType	4	(X/Y/Z)	..\data\2014048\dynamic\2014048_C5_02.trc
DataRate	CameraRate	NumFrames	NumMarkers	Units	OrigDataRate	OrigDataStartFrame	OrigNumFrames
100.000000	100.000000	4	52	mm	100.000000	90	144
Frame#	Time	L_IAS			L_IPS			R_IPS			R_IAS			L_FTC			L_FLE			L_FME			L_FAX			L_TTC			L_FAL			L_TAM			L_FCC			L_FM1			L_FM2			L_FM5			R_FTC			R_FLE			R_FME			R_FAX			R_TTC			R_FAL			R_TAM			R_FCC			R_FM1			R_FM2			R_FM5			CV7			TV10			SXS			SJN			L_SIA			L_SRS			L_SAA			L_SAE			L_HLE			L_HME			L_UOA			L_RSP			L_UHE			L_HM2			L_HM5			R_SIA			R_SRS			R_SAA			R_SAE			R_HLE			R_HME			R_UOA			R_RSP			R_UHE			R_HM2			R_HM5			
		X1	Y1	Z1	X2	Y2	Z2	X3	Y3	Z3	X4	Y4	Z4	X5	Y5	Z5	X6	Y6	Z6	X7	Y7	Z7	X8	Y8	Z8	X9	Y9	Z9	X10	Y10	Z10	X11	Y11	Z11	X12	Y12	Z12	X13	Y13	Z13	X14	Y14	Z14	X15	Y15	Z15	X16	Y16	Z16	X17	Y17	Z17	X18	Y18	Z18	X19	Y19	Z19	X20	Y20	Z20	X21	Y21	Z21	X22	Y22	Z22	X23	Y23	Z23	X24	Y24	Z24	X25	Y25	Z25	X26	Y26	Z26	X27	Y27	Z27	X28	Y28	Z28	X29	Y29	Z29	X30	Y30	Z30	X31	Y31	Z31	X32	Y32	Z32	X33	Y33	Z33	X34	Y34	Z34	X35	Y35	Z35	X36	Y36	Z36	X37	Y37	Z37	X38	Y38	Z38	X39	Y39	Z39	X40	Y40	Z40	X41	Y41	Z41	X42	Y42	Z42	X43	Y43	Z43	X44	Y44	Z44	X45	Y45	Z45	X46	Y46	Z46	X47	Y47	Z47	X48	Y48	Z48	X49	Y49	Z49	X50	Y50	Z50	X51	Y51	Z51	X52	Y52	Z52	

91	0.9	117.8541412353516	862.7043457031252	77.23023223876956	-75.60865783691409	911.8132324218752	172.5060119628907	-61.35443878173833	905.766784667969	275.3874816894532	144.089599609375	861.5427856445315	316.8011779785157	31.16490745544434	847.1413574218752	27.72532844543458	-54.11686325073245	427.7168579101564	93.51205444335939	-38.49621200561527	428.6385192871095	222.0880126953126	-86.04089355468753	373.1535949707032	95.67312622070312	-39.21521759033206	352.5179748535157	152.6624755859375	-223.6660614013673	81.4743118286133	146.2408599853516	-190.6750640869141	93.60794830322267	232.4070434570313	-275.2778625488282	45.52011489868165	204.1199798583985	-84.74570465087895	21.11150360107422	197.1746520996094	-84.833854675293	31.22048568725587	142.9912719726563	-149.544921875	19.22565460205078	107.373664855957	76.50209808349607	828.8690185546877	402.9042358398439	219.8376007080078	433.2695617675782	350.1768188476563	207.2708435058594	427.513397216797	216.3649291992188	232.4135131835938	382.9818420410157	354.5773315429689	281.6931762695312	395.7615356445314	292.665252685547	368.07861328125	75.0563430786133	338.9026489257814	367.8585205078125	99.72104644775393	253.8066864013673	337.4632873535156	17.95672416687012	291.6711425781251	500.4302673339844	89.41622161865236	257.641082763672	496.9246826171876	98.98514556884768	307.2478332519532	470.1505432128907	69.59032440185548	350.3247375488282	-16.25148582458499	1366.1728515625	207.0085601806641	-67.53341674804692	1088.620239257813	204.3816833496094	148.2850036621094	1061.353271484375	219.9116821289063	101.7588348388672	1286.341186523438	216.1497497558594	-82.53508758544925	1152.759887695313	122.1356887817383	-50.99248504638675	1291.277099609375	120.3480758666992	0.06889449805020699	1299.982543945313	48.03397750854494	48.65945434570313	1305.701049804688	46.72618865966798	90.55467224121095	1007.085571289063	-52.3577995300293	66.33762359619142	977.0325317382815	25.84846115112306	75.23577880859376	962.8948364257815	-21.28717422485351	298.9429016113282	870.513366699219	-12.84071540832516	257.1802978515626	839.5731201171877	-70.97353363037108	372.1477661132813	818.5469360351565	-20.12912750244136	304.4040527343751	776.3264770507815	-76.16355133056638	-91.19239807128911	1144.492919921875	287.4306640625001	-62.81882476806646	1285.274780273438	287.7745056152344	-19.87010192871099	1293.730712890625	367.5912475585938	23.38746070861812	1290.9912109375	392.2402343750001	-103.6684494018556	1003.895446777344	426.1705017089845	-91.36170196533209	986.9445800781252	346.0147705078126	-117.3003082275391	990.5308227539065	388.3811035156251	-90.94755554199226	756.0574951171876	462.4918518066407	-167.6016845703126	787.184020996094	469.2824096679689	-126.2229766845704	667.6955566406251	473.9531555175782	-205.5003509521486	726.8318481445314	475.8619995117189	
92	0.91	132.0958709716797	860.8135986328127	77.2301940917969	-60.84809875488285	910.225524902344	174.922103881836	-45.72540664672856	904.4678344726565	277.5203552246094	159.8093414306641	859.8575439453127	316.9261474609376	44.41545104980469	845.3083496093752	29.15102005004884	-43.90375900268557	427.1831970214845	93.49182891845705	-27.07835578918461	427.2475891113282	221.859359741211	-76.96266937255862	373.1351928710938	95.57497406005859	-29.94903755187991	351.2116088867188	152.1406707763672	-222.2496948242188	84.63872528076173	145.4492645263672	-188.6043243408204	96.09867858886722	231.634017944336	-274.5789184570313	50.35823440551759	203.6441955566407	-84.58415222167973	20.84341621398926	196.9141082763672	-84.91053771972659	31.12765693664551	142.9283599853516	-149.5484466552735	19.09259223937989	107.3122329711914	93.11284637451169	827.1558227539065	403.9285888671876	234.5794677734375	431.677703857422	350.430389404297	221.3374176025391	425.8265380859376	216.6903076171876	247.0834045410156	381.2293395996094	354.7940063476564	296.1908874511719	394.3878173828126	292.633270263672	383.2087097167969	74.10931396484376	338.724822998047	382.9456481933594	98.72525024414065	253.4837799072267	352.2885131835938	17.56958961486817	291.3763732910157	515.4725341796876	87.57865142822267	257.2824096679689	512.1984252929689	96.96112823486331	306.8117675781251	485.1776733398438	67.68943023681642	349.7615356445314	-1.186995983123805	1364.338745117188	207.8948822021485	-52.34623718261723	1086.844970703125	205.6765594482422	163.6329040527344	1059.47412109375	220.356658935547	117.1672821044922	1284.550659179688	217.0974884033204	-67.50842285156253	1151.0634765625	123.2638320922852	-35.99040603637697	1289.609375	121.3610229492188	15.17968940734863	1298.275634765625	49.0195655822754	63.73663330078126	1304.034912109375	47.70370101928712	107.1008224487305	1005.865966796875	-51.42146682739258	83.21974945068361	975.3191528320315	26.9181709289551	92.10234832763673	961.3228759765627	-20.16133117675781	318.1426391601563	873.9155883789065	-10.92777442932125	277.9176635742188	842.270935058594	-69.35822296142577	392.5769653320314	823.8612060546877	-17.64472961425777	326.4011840820313	780.037536621094	-73.99857330322263	-75.9830703735352	1142.771850585938	288.4370117187501	-47.55052566528325	1283.546997070313	288.6206359863282	-4.59517669677739	1292.223510742188	368.4002990722657	38.52393341064449	1289.44677734375	393.1985168457032	-92.05351257324226	1003.91259765625	426.443084716797	-78.70732116699224	986.5233154296877	346.5163574218751	-105.3341751098634	990.5896606445315	388.4974670410157	-82.29006195068366	756.2113037109376	463.6732177734376	-158.7291259765626	787.9810180664065	469.4454345703126	-118.4362030029298	668.2072143554689	474.6416625976564	-197.2341613769532	727.9363403320314	475.489471435547	
93	0.92	146.7397613525391	859.1031494140627	77.5586853027344	-45.76528930664065	908.9175415039065	177.067138671875	-30.03770828247075	903.545593261719	279.4899902343751	175.5665130615234	858.5564575195315	317.2725830078126	58.28997421264649	843.6260986328127	30.59634208679201	-32.86650466918947	426.7515563964845	93.25117492675783	-15.17560958862308	425.9066772460939	221.4486694335938	-67.17475891113284	373.2277526855469	95.21171569824219	-20.02632904052737	349.8941345214844	151.3573608398438	-220.4312591552735	88.3402557373047	144.3487091064453	-186.1326141357422	98.96314239501956	230.4464874267578	-273.4218750000001	56.0566749572754	202.853988647461	-84.69804382324223	20.4775447845459	196.6582489013672	-85.21067047119143	30.95119285583497	142.8959655761719	-149.6126403808594	19.00516510009766	107.1486740112305	109.6593017578125	826.0754394531252	405.0794677734376	249.6785430908203	430.644012451172	350.7153930664064	236.3872833251953	425.0289306640626	217.1287841796876	261.8078308105469	379.8727722167969	355.0440063476564	310.8766479492188	393.2868652343751	292.7567749023439	395.4918212890626	72.67910003662111	338.5155029296876	395.6476745605469	97.182487487793	253.1213531494142	363.9113159179688	17.13943672180176	290.9758605957032	527.8470458984376	84.01350402832033	257.1928100585939	524.7743530273439	93.21315002441408	306.5967712402345	497.1487426757813	64.33838653564455	349.3487243652345	14.04062461853025	1362.8203125	208.899642944336	-36.94536209106449	1085.369873046875	206.9735870361329	179.1792602539062	1058.01953125	220.9372711181641	132.7350463867188	1283.127685546875	218.176742553711	-52.27350997924808	1149.625610351563	124.4951782226563	-20.81346893310549	1288.22216796875	122.5115051269532	30.40463066101074	1296.83935546875	50.12954330444338	78.90977478027345	1302.667724609375	48.74212646484377	123.2269058227539	1004.799987792969	-50.29742813110352	99.64996337890628	973.8809814453127	28.16673278808596	108.4884796142578	959.9673461914065	-18.83806991577147	336.5007019042969	877.0178222656252	-9.003450393676719	297.6690063476563	844.768005371094	-67.67315673828122	412.0276794433595	828.782165527344	-15.2724285125732	347.3311767578126	783.5286254882815	-71.90380859374997	-60.58114624023442	1141.339477539063	289.5311889648438	-32.11903762817387	1282.124389648438	289.5864868164063	10.84680080413814	1290.97607421875	369.3352661132813	53.8474197387695	1288.174560546875	394.2420959472657	-79.7235412597657	1004.041809082031	426.890350341797	-65.45228576660162	986.2756347656252	347.1891479492188	-92.72073364257818	990.7432250976565	388.813934326172	-72.55513763427741	756.5004272460939	464.9776916503907	-148.8171539306641	788.7778930664065	469.7261352539064	-109.3681793212891	668.8084716796876	475.5158691406251	-187.816635131836	728.9402465820314	475.2197875976564	
94	0.93	161.7994232177735	857.5900878906252	78.25744628906253	-30.36792945861819	907.9011840820315	178.8736724853516	-14.3347148895264	903.0076293945315	281.2363891601563	191.3316040039062	857.6962890625002	317.8895263671876	72.83219146728517	842.0966796875002	32.04589843750001	-20.85687637329103	426.3872680664064	92.78047180175783	-2.607039928436307	424.5830383300782	220.8486633300782	-56.53384017944339	373.4154663085938	94.57825469970705	-9.314735412597676	348.5356750488282	150.2943725585938	-218.0604553222657	92.6614456176758	143.0035705566406	-183.0777282714844	102.2359008789063	228.884017944336	-271.5915832519532	62.73486328125001	201.8323516845703	-85.13239288330082	20.05199241638184	196.4347534179688	-85.76949310302737	30.70698356628419	142.9132537841797	-149.7625274658203	19.08295822143555	106.926383972168	126.066909790039	825.677673339844	406.3565063476564	265.0647277832031	430.1622009277345	351.057342529297	252.2901916503907	425.0918579101564	217.6932220458985	276.5691528320312	378.9402770996094	355.3480834960939	325.7088317871094	392.4822387695314	293.035125732422	405.2463989257813	70.85632324218751	338.3152770996095	406.2203979492188	95.18333435058595	252.7543334960939	372.6891784667969	16.68610572814942	290.5300292968751	537.8433837890626	78.94275665283205	257.3521423339845	534.9547119140626	87.96531677246095	306.598358154297	506.4053955078126	59.75055313110353	349.1081542968751	29.43303298950194	1361.652099609375	210.0192108154297	-21.34913253784183	1084.234497070313	208.2542266845704	194.9077301025391	1056.986206054688	221.6660461425782	148.4510955810547	1282.096069335938	219.3838348388673	-36.83605957031252	1148.48974609375	125.8095397949219	-5.455525398254411	1287.153930664063	123.7809677124024	45.75881576538086	1295.7109375	51.35193252563479	94.19808197021486	1301.626098632813	49.84259033203128	138.9273223876953	1003.913330078125	-49.00299835205078	115.6016464233399	972.7401123046877	29.57068634033205	124.3980789184571	958.836120605469	-17.35502624511718	354.0024108886719	879.7641601562502	-7.087565898895222	316.3742370605469	846.981872558594	-65.91889953613278	430.4946899414064	833.2395019531252	-13.04539489746089	367.1427001953126	786.6915283203127	-69.8769836425781	-45.00182723999028	1140.2236328125	290.6991577148438	-16.53140640258793	1281.038940429688	290.6670837402344	26.44573211669918	1290.008911132813	370.3936462402344	69.35677337646482	1287.191284179688	395.3692016601564	-66.6406326293946	1004.259399414063	427.5145568847657	-51.58015823364263	986.184509277344	348.0195617675782	-79.42746734619146	990.9768066406252	389.3330993652345	-61.71027374267585	756.8800659179689	466.3912048339845	-137.835433959961	789.560241699219	470.1477050781251	-99.04167175292977	669.4521484375001	476.5801696777345	-177.2439117431641	729.8530883789064	475.0980224609376	
